<svg data-v-423bf9ae="" xmlns="http://www.w3.org/2000/svg" viewBox="0 0 514 90" class="iconLeft"><!----><!----><!----><g data-v-423bf9ae="" id="47082930-b515-4975-9056-ba9f01bfaa15" fill="white" transform="matrix(6.036216979508284,0,0,6.036216979508284,104.02413993762559,-0.2112681037406503)"><path d="M0.99 12.29L0.99 2.69L5.61 2.69L5.61 2.69Q7.15 2.69 7.95 3.50L7.95 3.50L7.95 3.50Q8.75 4.31 8.75 5.75L8.75 5.75L8.75 5.75Q8.75 7.20 7.92 8.03L7.92 8.03L7.92 8.03Q7.08 8.86 5.52 8.86L5.52 8.86L2.79 8.86L2.79 12.29L0.99 12.29ZM2.79 7.34L5.46 7.34L5.46 7.34Q6.16 7.34 6.55 6.92L6.55 6.92L6.55 6.92Q6.94 6.50 6.94 5.75L6.94 5.75L6.94 5.75Q6.94 5.03 6.57 4.62L6.57 4.62L6.57 4.62Q6.19 4.21 5.46 4.21L5.46 4.21L2.79 4.21L2.79 7.34ZM9.39 12.29L13.13 2.69L15.39 2.69L19.12 12.29L17.19 12.29L16.41 10.21L12.01 10.21L11.24 12.29L9.39 12.29ZM12.57 8.69L15.83 8.69L14.85 6.06L14.85 6.06Q14.63 5.50 14.38 4.63L14.38 4.63L14.38 4.63Q14.34 4.51 14.30 4.40L14.30 4.40L14.30 4.40Q14.27 4.30 14.24 4.23L14.24 4.23L14.17 4.23L14.03 4.66L13.55 6.06L12.57 8.69ZM23.81 12.46L23.81 12.46Q22.71 12.46 21.80 12.14L21.80 12.14L21.80 12.14Q20.89 11.82 20.34 11.15L20.34 11.15L20.34 11.15Q19.80 10.49 19.80 9.51L19.80 9.51L19.81 9.21L21.62 9.21L21.60 9.46L21.60 9.46Q21.60 10.16 22.20 10.56L22.20 10.56L22.20 10.56Q22.81 10.95 23.86 10.95L23.86 10.95L23.86 10.95Q24.98 10.95 25.52 10.63L25.52 10.63L25.52 10.63Q26.07 10.30 26.07 9.73L26.07 9.73L26.07 9.73Q26.07 9.28 25.75 8.99L25.75 8.99L25.75 8.99Q25.42 8.69 24.95 8.52L24.95 8.52L24.95 8.52Q24.47 8.34 23.60 8.11L23.60 8.11L23.60 8.11Q22.46 7.80 21.75 7.51L21.75 7.51L21.75 7.51Q21.04 7.22 20.54 6.66L20.54 6.66L20.54 6.66Q20.03 6.09 20.03 5.17L20.03 5.17L20.03 5.17Q20.03 3.88 21.10 3.20L21.10 3.20L21.10 3.20Q22.16 2.52 23.88 2.52L23.88 2.52L23.88 2.52Q25.54 2.52 26.58 3.21L26.58 3.21L26.58 3.21Q27.62 3.91 27.62 5.31L27.62 5.31L27.62 5.47L25.86 5.47L25.86 5.32L25.86 5.32Q25.86 4.72 25.32 4.38L25.32 4.38L25.32 4.38Q24.78 4.03 23.87 4.03L23.87 4.03L23.87 4.03Q22.92 4.03 22.38 4.31L22.38 4.31L22.38 4.31Q21.84 4.59 21.84 5.10L21.84 5.10L21.84 5.10Q21.84 5.47 22.15 5.73L22.15 5.73L22.15 5.73Q22.46 5.99 22.93 6.15L22.93 6.15L22.93 6.15Q23.39 6.31 24.19 6.52L24.19 6.52L24.19 6.52Q25.35 6.83 26.09 7.13L26.09 7.13L26.09 7.13Q26.82 7.42 27.35 7.99L27.35 7.99L27.35 7.99Q27.87 8.57 27.87 9.48L27.87 9.48L27.87 9.48Q27.87 11.02 26.78 11.74L26.78 11.74L26.78 11.74Q25.69 12.46 23.81 12.46L23.81 12.46ZM33.15 12.46L33.15 12.46Q32.05 12.46 31.14 12.14L31.14 12.14L31.14 12.14Q30.23 11.82 29.68 11.15L29.68 11.15L29.68 11.15Q29.13 10.49 29.13 9.51L29.13 9.51L29.15 9.21L30.95 9.21L30.94 9.46L30.94 9.46Q30.94 10.16 31.54 10.56L31.54 10.56L31.54 10.56Q32.14 10.95 33.19 10.95L33.19 10.95L33.19 10.95Q34.31 10.95 34.86 10.63L34.86 10.63L34.86 10.63Q35.41 10.30 35.41 9.73L35.41 9.73L35.41 9.73Q35.41 9.28 35.08 8.99L35.08 8.99L35.08 8.99Q34.76 8.69 34.29 8.52L34.29 8.52L34.29 8.52Q33.81 8.34 32.94 8.11L32.94 8.11L32.94 8.11Q31.79 7.80 31.09 7.51L31.09 7.51L31.09 7.51Q30.38 7.22 29.88 6.66L29.88 6.66L29.88 6.66Q29.37 6.09 29.37 5.17L29.37 5.17L29.37 5.17Q29.37 3.88 30.44 3.20L30.44 3.20L30.44 3.20Q31.50 2.52 33.22 2.52L33.22 2.52L33.22 2.52Q34.87 2.52 35.92 3.21L35.92 3.21L35.92 3.21Q36.96 3.91 36.96 5.31L36.96 5.31L36.96 5.47L35.20 5.47L35.20 5.32L35.20 5.32Q35.20 4.72 34.66 4.38L34.66 4.38L34.66 4.38Q34.12 4.03 33.21 4.03L33.21 4.03L33.21 4.03Q32.26 4.03 31.72 4.31L31.72 4.31L31.72 4.31Q31.18 4.59 31.18 5.10L31.18 5.10L31.18 5.10Q31.18 5.47 31.49 5.73L31.49 5.73L31.49 5.73Q31.79 5.99 32.26 6.15L32.26 6.15L32.26 6.15Q32.73 6.31 33.53 6.52L33.53 6.52L33.53 6.52Q34.69 6.83 35.43 7.13L35.43 7.13L35.43 7.13Q36.16 7.42 36.69 7.99L36.69 7.99L36.69 7.99Q37.21 8.57 37.21 9.48L37.21 9.48L37.21 9.48Q37.21 11.02 36.12 11.74L36.12 11.74L36.12 11.74Q35.03 12.46 33.15 12.46L33.15 12.46ZM38.85 12.29L38.85 2.69L44.06 2.69L44.06 2.69Q44.83 2.69 45.44 2.98L45.44 2.98L45.44 2.98Q46.05 3.28 46.39 3.81L46.39 3.81L46.39 3.81Q46.73 4.35 46.73 5.05L46.73 5.05L46.73 5.05Q46.73 5.85 46.29 6.44L46.29 6.44L46.29 6.44Q45.85 7.03 45.16 7.25L45.16 7.25L45.16 7.31L45.16 7.31Q45.98 7.48 46.49 8.11L46.49 8.11L46.49 8.11Q47.00 8.74 47.00 9.65L47.00 9.65L47.00 9.65Q47.00 10.95 46.18 11.62L46.18 11.62L46.18 11.62Q45.36 12.29 44.06 12.29L44.06 12.29L38.85 12.29ZM40.64 6.62L43.58 6.62L43.58 6.62Q44.20 6.62 44.55 6.29L44.55 6.29L44.55 6.29Q44.90 5.95 44.90 5.43L44.90 5.43L44.90 5.43Q44.90 4.83 44.58 4.52L44.58 4.52L44.58 4.52Q44.25 4.21 43.69 4.21L43.69 4.21L40.64 4.21L40.64 6.62ZM40.64 10.77L43.82 10.77L43.82 10.77Q44.44 10.77 44.80 10.44L44.80 10.44L44.80 10.44Q45.16 10.11 45.16 9.45L45.16 9.45L45.16 9.45Q45.16 8.82 44.80 8.47L44.80 8.47L44.80 8.47Q44.44 8.12 43.72 8.12L43.72 8.12L40.64 8.12L40.64 10.77ZM53.14 12.46L53.14 12.46Q50.83 12.46 49.57 11.21L49.57 11.21L49.57 11.21Q48.31 9.97 48.31 7.49L48.31 7.49L48.31 7.49Q48.31 5.01 49.57 3.77L49.57 3.77L49.57 3.77Q50.83 2.52 53.14 2.52L53.14 2.52L53.14 2.52Q55.45 2.52 56.72 3.77L56.72 3.77L56.72 3.77Q57.99 5.01 57.99 7.49L57.99 7.49L57.99 7.49Q57.99 9.97 56.72 11.21L56.72 11.21L56.72 11.21Q55.45 12.46 53.14 12.46L53.14 12.46ZM53.14 10.95L53.14 10.95Q54.63 10.95 55.39 10.12L55.39 10.12L55.39 10.12Q56.15 9.28 56.15 7.64L56.15 7.64L56.15 7.35L56.15 7.35Q56.15 5.71 55.38 4.87L55.38 4.87L55.38 4.87Q54.61 4.03 53.14 4.03L53.14 4.03L53.14 4.03Q51.69 4.03 50.92 4.87L50.92 4.87L50.92 4.87Q50.15 5.71 50.15 7.35L50.15 7.35L50.15 7.64L50.15 7.64Q50.15 9.28 50.91 10.12L50.91 10.12L50.91 10.12Q51.67 10.95 53.14 10.95L53.14 10.95ZM58.62 12.29L62.09 7.25L58.93 2.69L61.11 2.69L63.27 5.91L63.35 5.91L65.51 2.69L67.56 2.69L64.40 7.24L67.90 12.29L65.73 12.29L63.22 8.57L63.14 8.57L60.68 12.29L58.62 12.29Z"></path></g><!----><g data-v-423bf9ae="" id="e79ebee6-d13b-4144-beb5-2c3882d75a6c" transform="matrix(2.8125,0,0,2.8125,0,0)" stroke="none" fill="white"><path d="M32 0H0v32h32V0zm-2.812 19.938H23.53C22.109 22.648 19.272 24.5 16 24.5s-6.109-1.852-7.529-4.562H2.812v-7.875H8.47C9.891 9.352 12.728 7.5 16 7.5s6.109 1.852 7.529 4.562h5.658v7.876z"></path></g><!----></svg>
